<mxfile host="app.diagrams.net" modified="2023-08-19T14:57:54.035Z" agent="Mozilla/5.0 (Windows NT 10.0; Win64; x64) AppleWebKit/537.36 (KHTML, like Gecko) Chrome/116.0.0.0 Safari/537.36" etag="9cxzqjYemS53zDaxsjGt" version="21.6.8" type="github">
  <diagram name="Page-1" id="Hz1ohdUSH_Gx4iMZX8w4">
    <mxGraphModel dx="2261" dy="782" grid="1" gridSize="10" guides="1" tooltips="1" connect="1" arrows="1" fold="1" page="1" pageScale="1" pageWidth="827" pageHeight="1169" math="0" shadow="0">
      <root>
        <mxCell id="0" />
        <mxCell id="1" parent="0" />
        <mxCell id="YYRi0PYZraKbrqkExKc4-1" value="" style="shape=umlLifeline;perimeter=lifelinePerimeter;whiteSpace=wrap;html=1;container=1;dropTarget=0;collapsible=0;recursiveResize=0;outlineConnect=0;portConstraint=eastwest;newEdgeStyle={&quot;edgeStyle&quot;:&quot;elbowEdgeStyle&quot;,&quot;elbow&quot;:&quot;vertical&quot;,&quot;curved&quot;:0,&quot;rounded&quot;:0};participant=umlBoundary;size=40;" parent="1" vertex="1">
          <mxGeometry x="235" y="70" width="50" height="610" as="geometry" />
        </mxCell>
        <mxCell id="YYRi0PYZraKbrqkExKc4-2" value="" style="html=1;points=[];perimeter=orthogonalPerimeter;outlineConnect=0;targetShapes=umlLifeline;portConstraint=eastwest;newEdgeStyle={&quot;edgeStyle&quot;:&quot;elbowEdgeStyle&quot;,&quot;elbow&quot;:&quot;vertical&quot;,&quot;curved&quot;:0,&quot;rounded&quot;:0};" parent="YYRi0PYZraKbrqkExKc4-1" vertex="1">
          <mxGeometry x="20" y="120" width="10" height="460" as="geometry" />
        </mxCell>
        <mxCell id="YYRi0PYZraKbrqkExKc4-3" value="" style="shape=umlLifeline;perimeter=lifelinePerimeter;whiteSpace=wrap;html=1;container=1;dropTarget=0;collapsible=0;recursiveResize=0;outlineConnect=0;portConstraint=eastwest;newEdgeStyle={&quot;edgeStyle&quot;:&quot;elbowEdgeStyle&quot;,&quot;elbow&quot;:&quot;vertical&quot;,&quot;curved&quot;:0,&quot;rounded&quot;:0};participant=umlEntity;" parent="1" vertex="1">
          <mxGeometry x="600" y="180" width="40" height="500" as="geometry" />
        </mxCell>
        <mxCell id="YYRi0PYZraKbrqkExKc4-4" value="" style="shape=umlLifeline;perimeter=lifelinePerimeter;whiteSpace=wrap;html=1;container=1;dropTarget=0;collapsible=0;recursiveResize=0;outlineConnect=0;portConstraint=eastwest;newEdgeStyle={&quot;edgeStyle&quot;:&quot;elbowEdgeStyle&quot;,&quot;elbow&quot;:&quot;vertical&quot;,&quot;curved&quot;:0,&quot;rounded&quot;:0};participant=umlActor;" parent="1" vertex="1">
          <mxGeometry x="40" y="80" width="20" height="610" as="geometry" />
        </mxCell>
        <mxCell id="YYRi0PYZraKbrqkExKc4-5" value="" style="html=1;points=[];perimeter=orthogonalPerimeter;outlineConnect=0;targetShapes=umlLifeline;portConstraint=eastwest;newEdgeStyle={&quot;edgeStyle&quot;:&quot;elbowEdgeStyle&quot;,&quot;elbow&quot;:&quot;vertical&quot;,&quot;curved&quot;:0,&quot;rounded&quot;:0};" parent="YYRi0PYZraKbrqkExKc4-4" vertex="1">
          <mxGeometry x="5" y="70" width="10" height="500" as="geometry" />
        </mxCell>
        <mxCell id="YYRi0PYZraKbrqkExKc4-6" value="" style="shape=umlLifeline;perimeter=lifelinePerimeter;whiteSpace=wrap;html=1;container=1;dropTarget=0;collapsible=0;recursiveResize=0;outlineConnect=0;portConstraint=eastwest;newEdgeStyle={&quot;edgeStyle&quot;:&quot;elbowEdgeStyle&quot;,&quot;elbow&quot;:&quot;vertical&quot;,&quot;curved&quot;:0,&quot;rounded&quot;:0};participant=umlControl;" parent="1" vertex="1">
          <mxGeometry x="440" y="60" width="40" height="610" as="geometry" />
        </mxCell>
        <mxCell id="YYRi0PYZraKbrqkExKc4-8" value="" style="endArrow=block;endFill=1;endSize=12;html=1;rounded=0;" parent="1" source="YYRi0PYZraKbrqkExKc4-5" edge="1">
          <mxGeometry width="160" relative="1" as="geometry">
            <mxPoint x="60" y="200" as="sourcePoint" />
            <mxPoint x="250" y="200" as="targetPoint" />
          </mxGeometry>
        </mxCell>
        <mxCell id="YYRi0PYZraKbrqkExKc4-9" value="&lt;b&gt;sd&lt;/b&gt; [rapport de présence]" style="shape=umlFrame;whiteSpace=wrap;html=1;pointerEvents=0;width=170;height=20;fillColor=#ffffff;" parent="1" vertex="1">
          <mxGeometry x="-70" y="30" width="830" height="720" as="geometry" />
        </mxCell>
        <mxCell id="YYRi0PYZraKbrqkExKc4-10" value="VueFormPrésence" style="text;html=1;strokeColor=none;fillColor=none;align=center;verticalAlign=middle;whiteSpace=wrap;rounded=0;" parent="1" vertex="1">
          <mxGeometry x="230" y="130" width="60" height="30" as="geometry" />
        </mxCell>
        <mxCell id="YYRi0PYZraKbrqkExKc4-14" value="controlsendrapport" style="text;html=1;strokeColor=none;fillColor=none;align=center;verticalAlign=middle;whiteSpace=wrap;rounded=0;" parent="1" vertex="1">
          <mxGeometry x="430" y="130" width="60" height="30" as="geometry" />
        </mxCell>
        <mxCell id="YYRi0PYZraKbrqkExKc4-15" value="" style="html=1;points=[];perimeter=orthogonalPerimeter;outlineConnect=0;targetShapes=umlLifeline;portConstraint=eastwest;newEdgeStyle={&quot;edgeStyle&quot;:&quot;elbowEdgeStyle&quot;,&quot;elbow&quot;:&quot;vertical&quot;,&quot;curved&quot;:0,&quot;rounded&quot;:0};" parent="1" vertex="1">
          <mxGeometry x="455" y="240" width="10" height="160" as="geometry" />
        </mxCell>
        <mxCell id="YYRi0PYZraKbrqkExKc4-17" value="" style="endArrow=block;endFill=1;endSize=12;html=1;rounded=0;" parent="1" target="YYRi0PYZraKbrqkExKc4-15" edge="1">
          <mxGeometry width="160" relative="1" as="geometry">
            <mxPoint x="260" y="270" as="sourcePoint" />
            <mxPoint x="335" y="270" as="targetPoint" />
          </mxGeometry>
        </mxCell>
        <mxCell id="YYRi0PYZraKbrqkExKc4-18" value="2.confirm(date_debut,date_fin)" style="text;html=1;align=center;verticalAlign=middle;resizable=0;points=[];autosize=1;strokeColor=none;fillColor=none;" parent="1" vertex="1">
          <mxGeometry x="270" y="232.5" width="190" height="30" as="geometry" />
        </mxCell>
        <mxCell id="YYRi0PYZraKbrqkExKc4-19" value="2.1.1.getreport()" style="text;html=1;align=center;verticalAlign=middle;resizable=0;points=[];autosize=1;strokeColor=none;fillColor=none;" parent="1" vertex="1">
          <mxGeometry x="485" y="280" width="110" height="30" as="geometry" />
        </mxCell>
        <mxCell id="YYRi0PYZraKbrqkExKc4-20" value="" style="endArrow=block;endFill=1;endSize=12;html=1;rounded=0;" parent="1" edge="1">
          <mxGeometry width="160" relative="1" as="geometry">
            <mxPoint x="465" y="310" as="sourcePoint" />
            <mxPoint x="615" y="310" as="targetPoint" />
          </mxGeometry>
        </mxCell>
        <mxCell id="YYRi0PYZraKbrqkExKc4-21" value="" style="html=1;points=[];perimeter=orthogonalPerimeter;outlineConnect=0;targetShapes=umlLifeline;portConstraint=eastwest;newEdgeStyle={&quot;edgeStyle&quot;:&quot;elbowEdgeStyle&quot;,&quot;elbow&quot;:&quot;vertical&quot;,&quot;curved&quot;:0,&quot;rounded&quot;:0};" parent="1" vertex="1">
          <mxGeometry x="615" y="280" width="10" height="100" as="geometry" />
        </mxCell>
        <mxCell id="YYRi0PYZraKbrqkExKc4-22" value="" style="endArrow=open;dashed=1;endFill=0;endSize=12;html=1;rounded=0;" parent="1" source="YYRi0PYZraKbrqkExKc4-21" target="YYRi0PYZraKbrqkExKc4-15" edge="1">
          <mxGeometry width="160" relative="1" as="geometry">
            <mxPoint x="120" y="440" as="sourcePoint" />
            <mxPoint x="280" y="440" as="targetPoint" />
          </mxGeometry>
        </mxCell>
        <mxCell id="YYRi0PYZraKbrqkExKc4-23" value="&lt;font style=&quot;font-size: 12px;&quot;&gt;2.1.2.setreport()&lt;/font&gt;" style="edgeLabel;html=1;align=center;verticalAlign=middle;resizable=0;points=[];" parent="YYRi0PYZraKbrqkExKc4-22" vertex="1" connectable="0">
          <mxGeometry x="0.04" y="5" relative="1" as="geometry">
            <mxPoint x="8" y="15" as="offset" />
          </mxGeometry>
        </mxCell>
        <mxCell id="YYRi0PYZraKbrqkExKc4-24" value="2.1setPresenceReport" style="text;html=1;strokeColor=none;fillColor=none;align=center;verticalAlign=middle;whiteSpace=wrap;rounded=0;" parent="1" vertex="1">
          <mxGeometry x="335" y="360" width="60" height="30" as="geometry" />
        </mxCell>
        <mxCell id="YYRi0PYZraKbrqkExKc4-25" value="Hrattendance" style="text;whiteSpace=wrap;html=1;" parent="1" vertex="1">
          <mxGeometry x="590" y="232.5" width="100" height="25" as="geometry" />
        </mxCell>
        <mxCell id="YYRi0PYZraKbrqkExKc4-30" value="1.Openvueform()" style="text;html=1;align=center;verticalAlign=middle;resizable=0;points=[];autosize=1;strokeColor=none;fillColor=none;" parent="1" vertex="1">
          <mxGeometry x="90" y="170" width="110" height="30" as="geometry" />
        </mxCell>
        <mxCell id="YYRi0PYZraKbrqkExKc4-39" value="" style="endArrow=open;dashed=1;endFill=0;endSize=12;html=1;rounded=0;" parent="1" target="YYRi0PYZraKbrqkExKc4-2" edge="1">
          <mxGeometry width="160" relative="1" as="geometry">
            <mxPoint x="455" y="360" as="sourcePoint" />
            <mxPoint x="305" y="360" as="targetPoint" />
          </mxGeometry>
        </mxCell>
        <mxCell id="YYRi0PYZraKbrqkExKc4-42" value="" style="endArrow=open;dashed=1;endFill=0;endSize=12;html=1;rounded=0;" parent="1" edge="1">
          <mxGeometry width="160" relative="1" as="geometry">
            <mxPoint x="255" y="420" as="sourcePoint" />
            <mxPoint x="55" y="420" as="targetPoint" />
          </mxGeometry>
        </mxCell>
        <mxCell id="YYRi0PYZraKbrqkExKc4-43" value="&lt;font style=&quot;font-size: 13px;&quot;&gt;2.1.3Rapport&lt;/font&gt;" style="edgeLabel;html=1;align=center;verticalAlign=middle;resizable=0;points=[];" parent="YYRi0PYZraKbrqkExKc4-42" vertex="1" connectable="0">
          <mxGeometry x="0.0815" y="4" relative="1" as="geometry">
            <mxPoint x="13" y="36" as="offset" />
          </mxGeometry>
        </mxCell>
        <mxCell id="YYRi0PYZraKbrqkExKc4-46" value="" style="html=1;points=[];perimeter=orthogonalPerimeter;outlineConnect=0;targetShapes=umlLifeline;portConstraint=eastwest;newEdgeStyle={&quot;edgeStyle&quot;:&quot;elbowEdgeStyle&quot;,&quot;elbow&quot;:&quot;vertical&quot;,&quot;curved&quot;:0,&quot;rounded&quot;:0};" parent="1" vertex="1">
          <mxGeometry x="455" y="480" width="10" height="170" as="geometry" />
        </mxCell>
        <mxCell id="YYRi0PYZraKbrqkExKc4-47" value="" style="endArrow=block;endFill=1;endSize=12;html=1;rounded=0;" parent="1" edge="1">
          <mxGeometry width="160" relative="1" as="geometry">
            <mxPoint x="265" y="517.5" as="sourcePoint" />
            <mxPoint x="455" y="517.5" as="targetPoint" />
          </mxGeometry>
        </mxCell>
        <mxCell id="YYRi0PYZraKbrqkExKc4-48" value="3.confirm(employe_id)" style="text;html=1;align=center;verticalAlign=middle;resizable=0;points=[];autosize=1;strokeColor=none;fillColor=none;" parent="1" vertex="1">
          <mxGeometry x="295" y="480" width="140" height="30" as="geometry" />
        </mxCell>
        <mxCell id="YYRi0PYZraKbrqkExKc4-49" value="" style="html=1;points=[];perimeter=orthogonalPerimeter;outlineConnect=0;targetShapes=umlLifeline;portConstraint=eastwest;newEdgeStyle={&quot;edgeStyle&quot;:&quot;elbowEdgeStyle&quot;,&quot;elbow&quot;:&quot;vertical&quot;,&quot;curved&quot;:0,&quot;rounded&quot;:0};" parent="1" vertex="1">
          <mxGeometry x="615" y="510.75" width="10" height="100" as="geometry" />
        </mxCell>
        <mxCell id="YYRi0PYZraKbrqkExKc4-56" value="3.1.1.getreport()" style="text;html=1;align=center;verticalAlign=middle;resizable=0;points=[];autosize=1;strokeColor=none;fillColor=none;" parent="1" vertex="1">
          <mxGeometry x="485" y="510.75" width="110" height="30" as="geometry" />
        </mxCell>
        <mxCell id="YYRi0PYZraKbrqkExKc4-57" value="" style="endArrow=block;endFill=1;endSize=12;html=1;rounded=0;" parent="1" edge="1">
          <mxGeometry width="160" relative="1" as="geometry">
            <mxPoint x="465" y="540.75" as="sourcePoint" />
            <mxPoint x="615" y="540.75" as="targetPoint" />
          </mxGeometry>
        </mxCell>
        <mxCell id="YYRi0PYZraKbrqkExKc4-58" value="" style="endArrow=open;dashed=1;endFill=0;endSize=12;html=1;rounded=0;" parent="1" edge="1">
          <mxGeometry width="160" relative="1" as="geometry">
            <mxPoint x="615" y="560.75" as="sourcePoint" />
            <mxPoint x="465" y="560.75" as="targetPoint" />
          </mxGeometry>
        </mxCell>
        <mxCell id="YYRi0PYZraKbrqkExKc4-59" value="&lt;font style=&quot;font-size: 12px;&quot;&gt;3.1.2.setreport()&lt;/font&gt;" style="edgeLabel;html=1;align=center;verticalAlign=middle;resizable=0;points=[];" parent="YYRi0PYZraKbrqkExKc4-58" vertex="1" connectable="0">
          <mxGeometry x="0.04" y="5" relative="1" as="geometry">
            <mxPoint x="8" y="15" as="offset" />
          </mxGeometry>
        </mxCell>
        <mxCell id="YYRi0PYZraKbrqkExKc4-60" value="3.1.1setPresenceReport" style="text;html=1;strokeColor=none;fillColor=none;align=center;verticalAlign=middle;whiteSpace=wrap;rounded=0;" parent="1" vertex="1">
          <mxGeometry x="335" y="590" width="60" height="30" as="geometry" />
        </mxCell>
        <mxCell id="YYRi0PYZraKbrqkExKc4-61" value="" style="endArrow=open;dashed=1;endFill=0;endSize=12;html=1;rounded=0;" parent="1" edge="1">
          <mxGeometry width="160" relative="1" as="geometry">
            <mxPoint x="455" y="590" as="sourcePoint" />
            <mxPoint x="265" y="590" as="targetPoint" />
          </mxGeometry>
        </mxCell>
        <mxCell id="mnSAz2ze3vqIDmrYRMBC-1" value="" style="endArrow=open;dashed=1;endFill=0;endSize=12;html=1;rounded=0;" edge="1" parent="1" target="YYRi0PYZraKbrqkExKc4-5">
          <mxGeometry width="160" relative="1" as="geometry">
            <mxPoint x="260" y="610.75" as="sourcePoint" />
            <mxPoint x="70" y="610.75" as="targetPoint" />
          </mxGeometry>
        </mxCell>
        <mxCell id="mnSAz2ze3vqIDmrYRMBC-2" value="3.1.3 Rapport Employé" style="text;html=1;strokeColor=none;fillColor=none;align=center;verticalAlign=middle;whiteSpace=wrap;rounded=0;" vertex="1" parent="1">
          <mxGeometry x="80" y="620" width="150" height="30" as="geometry" />
        </mxCell>
      </root>
    </mxGraphModel>
  </diagram>
</mxfile>
